<svg viewBox="0 0 44 44" fill="none" xmlns="http://www.w3.org/2000/svg">
    <g clip-path="url(#clip0_680_5287)">
        <path d="M43.5593 35.6722L43.5593 35.6722C43.9511 36.3305 43.4754 37.167 42.7093 37.167L1.29279 37.167L1.2913 37.167C0.974437 37.1685 0.665369 37.0119 0.478868 36.7452L0.478477 36.7447C0.254907 36.4265 0.241294 36.0027 0.438101 35.6722L0.43814 35.6721L21.1467 0.871865L21.1473 0.870757C21.2344 0.723082 21.3584 0.600679 21.5072 0.515652C21.6561 0.430623 21.8245 0.385916 21.9959 0.385954L21.9973 0.385947C22.1694 0.385173 22.3387 0.429476 22.4883 0.514449C22.6379 0.599421 22.7626 0.722098 22.8501 0.870269L22.8507 0.871174L43.5593 35.6722ZM15.3655 34.736L15.0971 35.1889H15.6236H24.6144H24.7854L24.8725 35.0419L32.77 21.7149L32.8608 21.5617L32.7697 21.4086L28.265 13.8383L28.0067 13.4042L27.7492 13.8388L15.3655 34.736ZM3.2972 34.7355L3.0274 35.1889H3.55501H12.6268H12.7978L12.8849 35.0419L26.7638 11.6216L26.8546 11.4683L26.7635 11.3152L22.2565 3.74095L21.9987 3.3077L21.7409 3.74095L3.2972 34.7355ZM27.3531 34.736L27.0846 35.1889H27.6112H40.4424H40.97L40.7002 34.7355L34.2713 23.932L34.013 23.4978L33.7554 23.9324L27.3531 34.736Z" fill="#0034D8" stroke="#202020" stroke-width="0.6"/>
    </g>
    <defs>
        <clipPath id="clip0_680_5287">
            <rect width="44" height="44" fill="white"/>
        </clipPath>
    </defs>
</svg>